<svg width="162" height="161" viewBox="0 0 162 161" fill="none" xmlns="http://www.w3.org/2000/svg">
<path d="M161.885 160.037C161.885 160.09 161.875 160.142 161.855 160.19C161.835 160.238 161.805 160.282 161.768 160.319C161.731 160.357 161.687 160.386 161.639 160.406C161.591 160.426 161.539 160.436 161.486 160.436H0.398802C0.346431 160.436 0.29457 160.426 0.246186 160.406C0.197801 160.386 0.153847 160.357 0.116815 160.319C0.0797832 160.282 0.0504065 160.238 0.030365 160.19C0.0103235 160.142 0 160.09 0 160.037V0.398781C0 0.346411 0.0103235 0.29455 0.030365 0.246165C0.0504065 0.197781 0.0797832 0.153826 0.116815 0.116795C0.153847 0.0797629 0.197801 0.0503862 0.246186 0.0303447C0.29457 0.0103033 0.346431 0 0.398802 0H161.486C161.539 0 161.591 0.0103033 161.639 0.0303447C161.687 0.0503862 161.731 0.0797629 161.768 0.116795C161.805 0.153826 161.835 0.197781 161.855 0.246165C161.875 0.29455 161.885 0.346411 161.885 0.398781V160.037ZM80.7698 106.931C87.5494 106.938 92.8933 107.861 96.4825 103.395C97.3244 102.345 98.0644 100.131 98.7024 96.7549C100.75 85.9386 102.877 74.9784 105.083 63.8741C105.438 62.1061 105.823 59.5471 106.24 56.1972C106.247 56.1461 106.272 56.0991 106.311 56.0646C106.349 56.0301 106.398 56.0104 106.45 56.0088C106.502 56.0072 106.552 56.0239 106.593 56.0559C106.633 56.088 106.661 56.1333 106.672 56.1839L119.314 122.544C119.334 122.654 119.392 122.754 119.478 122.826C119.565 122.897 119.673 122.936 119.786 122.936H143.64C143.677 122.935 143.714 122.927 143.748 122.911C143.781 122.895 143.811 122.872 143.835 122.844C143.859 122.816 143.876 122.783 143.886 122.747C143.896 122.711 143.899 122.674 143.893 122.637C143.623 120.997 143.058 117.911 142.198 113.378C136.779 84.7666 132.662 63.1097 129.849 48.4074C129.419 46.1741 128.973 44.6986 128.513 43.9807C126.426 40.7106 122.923 39.3547 118.882 39.3414C110.338 39.3148 104.556 39.3347 101.534 39.4012C98.1973 39.4721 95.5254 40.7416 93.5181 43.2097C92.7205 44.189 92.0204 46.214 91.4177 49.2847C88.2318 65.5512 85.3338 81.1708 82.7239 96.1434C82.7011 96.2698 82.6373 96.3851 82.5424 96.4716C82.4475 96.5581 82.3268 96.6109 82.1989 96.622C81.7159 96.6575 81.2417 96.6752 80.7765 96.6752C80.3112 96.6752 79.8393 96.6553 79.3607 96.6154C79.2338 96.6047 79.1138 96.5528 79.019 96.4676C78.9242 96.3824 78.8598 96.2686 78.8357 96.1434C76.2391 81.1664 73.3566 65.5424 70.1884 49.2715C69.5902 46.2007 68.8923 44.1757 68.0947 43.1964C66.0919 40.7239 63.4221 39.4522 60.0855 39.3813C57.0635 39.3104 51.281 39.2838 42.7378 39.3015C38.6967 39.3082 35.1873 40.664 33.1002 43.9275C32.6394 44.6454 32.1918 46.121 31.7576 48.3542C28.9306 63.0521 24.7919 84.7046 19.3417 113.312C18.4776 117.845 17.9082 120.931 17.6335 122.57C17.6278 122.607 17.63 122.645 17.64 122.68C17.6501 122.716 17.6676 122.749 17.6916 122.778C17.7155 122.806 17.7453 122.829 17.7788 122.845C17.8124 122.861 17.849 122.869 17.8861 122.87L41.7408 122.896C41.853 122.896 41.9616 122.857 42.0479 122.786C42.1341 122.714 42.1925 122.614 42.2127 122.504L54.9277 56.1574C54.9381 56.1067 54.966 56.0614 55.0066 56.0294C55.0471 55.9973 55.0977 55.9806 55.1493 55.9822C55.201 55.9838 55.2504 56.0036 55.2889 56.038C55.3274 56.0725 55.3525 56.1195 55.3598 56.1706C55.7719 59.5205 56.1552 62.0795 56.5096 63.8475C58.703 74.9562 60.8166 85.9187 62.8505 96.735C63.4886 100.111 64.2264 102.325 65.0639 103.375C68.6464 107.848 73.9903 106.931 80.7698 106.931Z" fill="white"/>
</svg>
